<svg xmlns="http://www.w3.org/2000/svg" viewBox="0 -0.5 200 200" shape-rendering="crispEdges">
<metadata>Made with Pixels to Svg https://codepen.io/shshaw/pen/XbxvNj</metadata>
<path stroke="rgba(216,78,78,0.050980392156862744)" d="M18 50h1M18 51h1M18 52h1M18 53h1M18 54h1M18 55h1M68 137h1" />
<path stroke="rgba(223,70,83,0.1568627450980392)" d="M19 50h6M144 50h6M19 51h6M144 51h6M19 52h6M144 52h6M19 53h6M144 53h6M19 54h6M144 54h6M19 55h6M144 55h6" />
<path stroke="rgba(226,75,84,0.6784313725490196)" d="M25 50h6M150 50h6M25 51h6M150 51h6M25 52h6M150 52h6M25 53h6M150 53h6M25 54h6M150 54h6M25 55h6M150 55h6" />
<path stroke="rgba(225,75,83,0.8117647058823529)" d="M31 50h1M31 51h1M31 52h1M31 53h1M31 54h1M31 55h1M106 94h1M106 95h1M106 96h1M106 97h1M106 98h1M106 99h1M187 100h1M187 101h1M187 102h1M187 103h1M187 104h1M187 105h1M62 107h1M62 108h1M62 109h1M62 110h1M62 111h1" />
<path stroke="rgba(227,76,83,0.9490196078431372)" d="M32 50h5M157 50h5M32 51h5M157 51h5M32 52h5M157 52h5M32 53h5M157 53h5M32 54h5M157 54h5M32 55h5M157 55h5M94 100h6M94 101h6M94 102h6M94 103h6M94 104h6M94 105h6" />
<path stroke="rgba(226,76,83,0.9568627450980393)" d="M37 50h1M37 51h1M37 52h1M37 53h1M37 54h1M37 55h1" />
<path stroke="rgba(226,76,84,0.9647058823529412)" d="M38 50h6M163 50h5M38 51h6M163 51h5M38 52h6M163 52h5M38 53h6M163 53h5M38 54h6M163 54h5M38 55h6M163 55h5" />
<path stroke="rgba(226,75,83,0.7215686274509804)" d="M44 50h6M169 50h6M44 51h6M169 51h6M44 52h6M169 52h6M44 53h6M169 53h6M44 54h6M169 54h6M44 55h6M169 55h6M12 81h1M107 94h5M107 95h5M107 96h5M107 97h5M107 98h5M107 99h5" />
<path stroke="rgba(227,76,80,0.21176470588235294)" d="M50 50h6M175 50h6M50 51h6M175 51h6M50 52h6M175 52h6M50 53h6M175 53h6M50 54h6M175 54h6M50 55h6M175 55h6" />
<path stroke="rgba(227,71,85,0.07058823529411765)" d="M56 50h1M56 51h1M56 52h1M56 53h1M56 54h1M56 55h1" />
<path stroke="rgba(226,75,83,0.8588235294117647)" d="M156 50h1M156 51h1M156 52h1M156 53h1M156 54h1M156 55h1" />
<path stroke="rgba(226,76,83,0.9529411764705882)" d="M162 50h1M162 51h1M162 52h1M162 53h1M162 54h1M162 55h1" />
<path stroke="rgba(226,75,83,0.8823529411764706)" d="M168 50h1M168 51h1M168 52h1M168 53h1M168 54h1M168 55h1M62 81h1M18 106h1M168 131h1" />
<path stroke="rgba(227,76,76,0.10588235294117647)" d="M181 50h1M181 51h1M181 52h1M181 53h1M181 54h1M181 55h1" />
<path stroke="rgba(230,51,77,0.0392156862745098)" d="M12 56h1" />
<path stroke="rgba(231,72,80,0.12549019607843137)" d="M13 56h5M138 56h6" />
<path stroke="rgba(226,71,84,0.30980392156862746)" d="M18 56h1" />
<path stroke="rgba(226,74,83,0.6784313725490196)" d="M19 56h6M144 56h6" />
<path stroke="rgba(226,75,84,0.8901960784313725)" d="M25 56h6M150 56h6" />
<path stroke="rgba(225,75,83,0.9058823529411765)" d="M31 56h1M62 87h1" />
<path stroke="rgba(225,76,83,0.9254901960784314)" d="M32 56h6M157 56h5" />
<path stroke="rgba(226,76,84,0.9254901960784314)" d="M38 56h6M163 56h5" />
<path stroke="rgba(226,75,83,0.9058823529411765)" d="M44 56h6M169 56h6M32 131h5M157 131h5M37 132h1M37 133h1M37 134h1M37 135h1M37 136h1M57 138h5M182 138h5M57 139h5M182 139h5M57 140h5M182 140h5M57 141h5M182 141h5M57 142h5M182 142h5M57 143h5M182 143h5" />
<path stroke="rgba(226,77,82,0.7176470588235294)" d="M50 56h6M175 56h6" />
<path stroke="rgba(224,76,81,0.3568627450980392)" d="M56 56h1" />
<path stroke="rgba(227,74,79,0.17647058823529413)" d="M57 56h5M182 56h5M62 57h1M62 58h1M62 59h1M62 60h1M62 61h1" />
<path stroke="rgba(221,76,76,0.11764705882352941)" d="M62 56h1" />
<path stroke="rgba(223,64,80,0.06274509803921569)" d="M137 56h1" />
<path stroke="rgba(225,76,83,0.9137254901960784)" d="M156 56h1M32 57h5M157 57h5M32 58h5M157 58h5M32 59h5M157 59h5M32 60h5M157 60h5M32 61h5M157 61h5M62 88h1M62 89h1M62 90h1M62 91h1M62 92h1M62 93h1" />
<path stroke="rgba(225,76,82,0.9215686274509803)" d="M162 56h1" />
<path stroke="rgba(226,75,83,0.9176470588235294)" d="M168 56h1M18 107h1M18 108h1M18 109h1M18 110h1M18 111h1" />
<path stroke="rgba(226,76,81,0.4470588235294118)" d="M181 56h1" />
<path stroke="rgba(220,70,81,0.08627450980392157)" d="M187 56h1M87 81h1" />
<path stroke="rgba(239,64,64,0.06274509803921569)" d="M12 57h1M12 58h1M12 59h1M12 60h1M12 61h1" />
<path stroke="rgba(229,73,83,0.19215686274509805)" d="M13 57h5M138 57h6M13 58h5M138 58h6M13 59h5M138 59h6M13 60h5M138 60h6M13 61h5M138 61h6" />
<path stroke="rgba(228,73,82,0.4392156862745098)" d="M18 57h1M18 58h1M18 59h1M18 60h1M18 61h1" />
<path stroke="rgba(226,75,84,0.9411764705882353)" d="M19 57h6M144 57h6M19 58h6M144 58h6M19 59h6M144 59h6M19 60h6M144 60h6M19 61h6M144 61h6M44 138h6M169 138h6M44 139h6M169 139h6M44 140h6M169 140h6M44 141h6M169 141h6M44 142h6M169 142h6M44 143h6M169 143h6" />
<path stroke="#e24c54" d="M25 57h6M44 57h6M150 57h6M169 57h6M25 58h6M44 58h6M150 58h6M169 58h6M25 59h6M44 59h6M150 59h6M169 59h6M25 60h6M44 60h6M150 60h6M169 60h6M25 61h6M44 61h6M150 61h6M169 61h6M19 63h6M50 63h6M144 63h6M175 63h6M19 64h6M50 64h6M144 64h6M175 64h6M19 65h6M50 65h6M144 65h6M175 65h6M19 66h6M50 66h6M144 66h6M175 66h6M19 67h6M50 67h6M144 67h6M175 67h6M13 69h5M57 69h5M138 69h6M182 69h5M13 70h5M57 70h5M138 70h6M182 70h5M13 71h5M57 71h5M138 71h6M182 71h5M13 72h5M57 72h5M138 72h6M182 72h5M13 73h5M57 73h5M138 73h6M182 73h5M13 74h5M57 74h5M138 74h6M182 74h5M13 75h5M57 75h5M119 75h6M138 75h6M182 75h5M13 76h5M57 76h5M119 76h6M138 76h6M182 76h5M13 77h5M57 77h5M119 77h6M138 77h6M182 77h5M13 78h5M57 78h5M119 78h6M138 78h6M182 78h5M13 79h5M57 79h5M119 79h6M138 79h6M182 79h5M13 80h5M57 80h5M119 80h6M138 80h6M182 80h5M13 81h5M57 81h5M119 81h6M138 81h6M182 81h5M13 82h5M57 82h5M75 82h6M119 82h6M138 82h6M182 82h5M13 83h5M57 83h5M75 83h6M119 83h6M138 83h6M182 83h5M13 84h5M57 84h5M75 84h6M119 84h6M138 84h6M182 84h5M13 85h5M57 85h5M75 85h6M119 85h6M138 85h6M182 85h5M13 86h5M57 86h5M75 86h6M119 86h6M138 86h6M182 86h5M13 87h5M57 87h5M75 87h6M119 87h6M138 87h6M182 87h5M13 88h5M57 88h5M75 88h6M94 88h12M119 88h6M138 88h6M182 88h5M13 89h5M57 89h5M75 89h6M94 89h12M119 89h6M138 89h6M182 89h5M13 90h5M57 90h5M75 90h6M94 90h12M119 90h6M138 90h6M182 90h5M13 91h5M57 91h5M75 91h6M94 91h12M119 91h6M138 91h6M182 91h5M13 92h5M57 92h5M75 92h6M94 92h12M119 92h6M138 92h6M182 92h5M13 93h5M57 93h5M75 93h6M94 93h12M119 93h6M138 93h6M182 93h5M13 94h5M57 94h5M75 94h6M94 94h12M119 94h6M138 94h6M182 94h5M13 95h5M57 95h5M75 95h6M94 95h12M119 95h6M138 95h6M182 95h5M13 96h5M57 96h5M75 96h6M94 96h12M119 96h6M138 96h6M182 96h5M13 97h5M57 97h5M75 97h6M94 97h12M119 97h6M138 97h6M182 97h5M13 98h5M57 98h5M75 98h6M94 98h12M119 98h6M138 98h6M182 98h5M13 99h5M57 99h5M75 99h6M94 99h12M119 99h6M138 99h6M182 99h5M13 100h5M57 100h5M119 100h6M138 100h6M182 100h5M13 101h5M57 101h5M119 101h6M138 101h6M182 101h5M13 102h5M57 102h5M119 102h6M138 102h6M182 102h5M13 103h5M57 103h5M119 103h6M138 103h6M182 103h5M13 104h5M57 104h5M119 104h6M138 104h6M182 104h5M13 105h5M57 105h5M119 105h6M138 105h6M182 105h5M13 106h5M57 106h5M138 106h6M182 106h5M13 107h5M57 107h5M107 107h5M138 107h6M182 107h5M13 108h5M57 108h5M107 108h5M138 108h6M182 108h5M13 109h5M57 109h5M107 109h5M138 109h6M182 109h5M13 110h5M57 110h5M107 110h5M138 110h6M182 110h5M13 111h5M57 111h5M107 111h5M138 111h6M182 111h5M107 112h5M82 113h12M107 113h11M82 114h12M107 114h11M82 115h12M107 115h11M82 116h12M107 116h11M82 117h12M107 117h11M82 118h12M113 118h5M19 119h6M50 119h6M82 119h12M113 119h5M144 119h6M175 119h6M19 120h6M50 120h6M82 120h12M113 120h5M144 120h6M175 120h6M19 121h6M50 121h6M82 121h12M113 121h5M144 121h6M175 121h6M19 122h6M50 122h6M82 122h12M113 122h5M144 122h6M175 122h6M19 123h6M50 123h6M82 123h12M113 123h5M144 123h6M175 123h6M19 124h6M50 124h6M82 124h12M113 124h5M144 124h6M175 124h6M32 125h12M82 125h5M113 125h5M157 125h11M32 126h12M82 126h5M113 126h5M157 126h11M32 127h12M82 127h5M113 127h5M157 127h11M32 128h12M82 128h5M113 128h5M157 128h11M32 129h12M82 129h5M113 129h5M157 129h11M32 130h12M82 130h5M113 130h5M157 130h11M38 131h6M163 131h5M38 132h6M163 132h5M38 133h6M163 133h5M38 134h6M163 134h5M38 135h6M163 135h5M38 136h6M163 136h5M38 137h6M163 137h5M38 138h6M163 138h5M38 139h6M163 139h5M38 140h6M163 140h5M38 141h6M163 141h5M38 142h6M163 142h5M38 143h6M163 143h5M50 144h12M175 144h12M50 145h12M175 145h12M50 146h12M175 146h12M50 147h12M175 147h12M50 148h12M175 148h12M50 149h12M175 149h12" />
<path stroke="rgba(225,76,83,0.9568627450980393)" d="M31 57h1M31 58h1M31 59h1M31 60h1M31 61h1" />
<path stroke="rgba(225,76,84,0.9098039215686274)" d="M37 57h1M162 57h1M37 58h1M162 58h1M37 59h1M162 59h1M37 60h1M162 60h1M37 61h1M162 61h1" />
<path stroke="rgba(226,76,84,0.9098039215686274)" d="M38 57h6M163 57h5M38 58h6M163 58h5M38 59h6M163 59h5M38 60h6M163 60h5M38 61h6M163 61h5" />
<path stroke="rgba(226,76,83,0.9725490196078431)" d="M50 57h6M175 57h6M50 58h6M175 58h6M50 59h6M175 59h6M50 60h6M175 60h6M50 61h6M175 61h6M107 100h5M107 101h5M107 102h5M107 103h5M107 104h5M107 105h5M25 125h6M150 125h6M25 126h6M150 126h6M25 127h6M150 127h6M25 128h6M150 128h6M25 129h6M150 129h6M25 130h6M150 130h6" />
<path stroke="rgba(225,76,82,0.5019607843137255)" d="M56 57h1M56 58h1M56 59h1M56 60h1M56 61h1M63 106h5M188 106h6" />
<path stroke="rgba(225,75,82,0.26666666666666666)" d="M57 57h5M182 57h5M57 58h5M182 58h5M57 59h5M182 59h5M57 60h5M182 60h5M57 61h5M182 61h5M31 138h1M31 139h1M31 140h1M31 141h1M31 142h1M31 143h1" />
<path stroke="rgba(234,64,64,0.09411764705882353)" d="M137 57h1M137 58h1M137 59h1M137 60h1M137 61h1" />
<path stroke="rgba(225,76,83,0.9411764705882353)" d="M156 57h1M156 58h1M156 59h1M156 60h1M156 61h1" />
<path stroke="rgba(226,76,84,0.9372549019607843)" d="M168 57h1M168 58h1M168 59h1M168 60h1M168 61h1" />
<path stroke="rgba(224,74,82,0.6196078431372549)" d="M181 57h1M181 58h1M181 59h1M181 60h1M181 61h1M137 112h1" />
<path stroke="rgba(225,75,82,0.13333333333333333)" d="M187 57h1M187 58h1M187 59h1M187 60h1M187 61h1M63 144h5M188 144h6M63 145h5M188 145h6M63 146h5M188 146h6M63 147h5M188 147h6M63 148h5M188 148h6M63 149h5M188 149h6" />
<path stroke="rgba(240,45,52,0.13333333333333333)" d="M12 62h1" />
<path stroke="rgba(227,72,82,0.4)" d="M13 62h5M138 62h6" />
<path stroke="rgba(228,74,82,0.5843137254901961)" d="M18 62h1" />
<path stroke="rgba(226,75,84,0.9607843137254902)" d="M19 62h6M144 62h6" />
<path stroke="rgba(227,76,83,0.8431372549019608)" d="M25 62h6M150 62h6" />
<path stroke="rgba(230,63,69,0.7254901960784313)" d="M31 62h1" />
<path stroke="rgba(235,51,56,0.611764705882353)" d="M32 62h5M157 62h5" />
<path stroke="rgba(235,49,54,0.6078431372549019)" d="M37 62h1M162 62h1" />
<path stroke="rgba(235,49,56,0.6078431372549019)" d="M38 62h6M163 62h5" />
<path stroke="rgba(225,75,83,0.8313725490196079)" d="M44 62h6M169 62h6M18 75h1M18 76h1M18 77h1M18 78h1M18 79h1M18 80h1M62 106h1M118 125h1M118 126h1M118 127h1M118 128h1M118 129h1M118 130h1" />
<path stroke="rgba(226,76,83,0.9803921568627451)" d="M50 62h6M175 62h6" />
<path stroke="rgba(225,75,82,0.6431372549019608)" d="M56 62h1M100 75h6M100 76h6M100 77h6M100 78h6M100 79h6M100 80h6" />
<path stroke="rgba(225,76,82,0.4745098039215686)" d="M57 62h5M182 62h5" />
<path stroke="rgba(224,72,79,0.3176470588235294)" d="M62 62h1" />
<path stroke="rgba(255,128,128,0.00784313725490196)" d="M63 62h5M188 62h6M69 106h6" />
<path stroke="rgba(255,0,0,0.00392156862745098)" d="M68 62h1M7 63h5M132 63h5M7 64h5M132 64h5M7 65h5M132 65h5M7 66h5M132 66h5M7 67h5M132 67h5M32 68h12M157 68h11M31 69h1M31 70h1M31 71h1M31 72h1M31 73h1M31 74h1M62 131h1M187 131h1M75 137h6M63 150h5M188 150h6M63 151h5M188 151h6M63 152h5M188 152h6M63 153h5M188 153h6M63 154h5M188 154h6M63 155h5M188 155h6" />
<path stroke="rgba(235,55,60,0.2)" d="M137 62h1" />
<path stroke="rgba(232,58,64,0.6862745098039216)" d="M156 62h1" />
<path stroke="rgba(232,59,64,0.6823529411764706)" d="M168 62h1" />
<path stroke="rgba(225,74,81,0.7254901960784313)" d="M181 62h1" />
<path stroke="rgba(222,70,78,0.24313725490196078)" d="M187 62h1" />
<path stroke="rgba(244,26,29,0.27450980392156865)" d="M12 63h1M12 64h1M12 65h1M12 66h1M12 67h1" />
<path stroke="rgba(226,75,84,0.8235294117647058)" d="M13 63h5M138 63h6M13 64h5M138 64h6M13 65h5M138 65h6M13 66h5M138 66h6M13 67h5M138 67h6" />
<path stroke="rgba(226,75,84,0.8823529411764706)" d="M18 63h1M18 64h1M18 65h1M18 66h1M18 67h1M13 68h5M138 68h6" />
<path stroke="rgba(227,76,83,0.5294117647058824)" d="M25 63h6M150 63h6M25 64h6M150 64h6M25 65h6M150 65h6M25 66h6M150 66h6M25 67h6M150 67h6" />
<path stroke="rgba(240,37,41,0.26666666666666666)" d="M31 63h1M31 64h1M31 65h1M31 66h1M31 67h1" />
<path stroke="rgba(255,0,0,0.00784313725490196)" d="M32 63h12M157 63h11M32 64h12M157 64h11M32 65h12M157 65h11M32 66h12M157 66h11M32 67h12M157 67h11M113 69h5M113 70h5M113 71h5M113 72h5M113 73h5M113 74h5M187 125h1M187 126h1M187 127h1M187 128h1M187 129h1M187 130h1M57 131h5M182 131h5M44 150h6M169 150h6M44 151h6M169 151h6M44 152h6M169 152h6M44 153h6M169 153h6M44 154h6M169 154h6M44 155h6M169 155h6M187 156h1" />
<path stroke="rgba(225,74,82,0.5019607843137255)" d="M44 63h6M169 63h6M44 64h6M169 64h6M44 65h6M169 65h6M44 66h6M169 66h6M44 67h6M169 67h6M119 125h6M119 126h6M119 127h6M119 128h6M119 129h6M119 130h6" />
<path stroke="rgba(226,75,83,0.9294117647058824)" d="M56 63h1M56 64h1M56 65h1M56 66h1M56 67h1M56 68h6M181 68h6M81 100h1M81 101h1M81 102h1M81 103h1M81 104h1M81 105h1" />
<path stroke="rgba(226,75,83,0.8941176470588236)" d="M57 63h5M182 63h5M57 64h5M182 64h5M57 65h5M182 65h5M57 66h5M182 66h5M57 67h5M182 67h5" />
<path stroke="rgba(225,71,76,0.6039215686274509)" d="M62 63h1M62 64h1M62 65h1M62 66h1M62 67h1" />
<path stroke="rgba(223,64,64,0.03137254901960784)" d="M63 63h5M188 63h6M63 64h5M188 64h6M63 65h5M188 65h6M63 66h5M188 66h6M63 67h5M188 67h6M69 100h6M69 101h6M69 102h6M69 103h6M69 104h6M69 105h6" />
<path stroke="rgba(204,51,51,0.0196078431372549)" d="M68 63h1M68 64h1M68 65h1M68 66h1M68 67h1M57 125h5M182 125h5M57 126h5M182 126h5M57 127h5M182 127h5M57 128h5M182 128h5M57 129h5M182 129h5M57 130h5M182 130h5" />
<path stroke="rgba(240,36,41,0.4117647058823529)" d="M137 63h1M137 64h1M137 65h1M137 66h1M137 67h1" />
<path stroke="rgba(244,28,28,0.1803921568627451)" d="M156 63h1M156 64h1M156 65h1M156 66h1M156 67h1" />
<path stroke="rgba(243,23,29,0.17254901960784313)" d="M168 63h1M168 64h1M168 65h1M168 66h1M168 67h1" />
<path stroke="rgba(226,75,83,0.9450980392156862)" d="M181 63h1M181 64h1M181 65h1M181 66h1M181 67h1M118 107h1M118 108h1M118 109h1M118 110h1M118 111h1" />
<path stroke="rgba(225,69,73,0.4627450980392157)" d="M187 63h1M187 64h1M187 65h1M187 66h1M187 67h1" />
<path stroke="rgba(237,36,36,0.054901960784313725)" d="M6 68h1" />
<path stroke="rgba(243,23,23,0.08627450980392157)" d="M7 68h5M132 68h5" />
<path stroke="rgba(238,40,46,0.34901960784313724)" d="M12 68h1" />
<path stroke="rgba(226,75,84,0.9019607843137255)" d="M18 68h1" />
<path stroke="rgba(226,75,84,0.9450980392156862)" d="M19 68h6M144 68h6M18 69h1M18 70h1M18 71h1M18 72h1M18 73h1M18 74h1" />
<path stroke="rgba(193,51,54,0.35294117647058826)" d="M25 68h6M150 68h6" />
<path stroke="rgba(215,28,28,0.17647058823529413)" d="M31 68h1" />
<path stroke="rgba(228,69,75,0.3333333333333333)" d="M44 68h6M169 68h6" />
<path stroke="rgba(226,75,84,0.9333333333333333)" d="M50 68h6M175 68h6M56 69h1M56 70h1M56 71h1M56 72h1M56 73h1M56 74h1M107 119h5M107 120h5M107 121h5M107 122h5M107 123h5M107 124h5" />
<path stroke="rgba(225,72,78,0.6627450980392157)" d="M62 68h1" />
<path stroke="rgba(225,67,67,0.13333333333333333)" d="M63 68h5M188 68h6" />
<path stroke="rgba(222,72,72,0.15294117647058825)" d="M68 68h1" />
<path stroke="rgba(224,71,76,0.19607843137254902)" d="M69 68h6" />
<path stroke="rgba(228,76,81,0.1843137254901961)" d="M75 68h6" />
<path stroke="rgba(222,78,78,0.09019607843137255)" d="M81 68h1" />
<path stroke="rgba(240,30,45,0.06666666666666667)" d="M118 68h1" />
<path stroke="rgba(230,60,65,0.2)" d="M119 68h6" />
<path stroke="rgba(229,62,68,0.19215686274509805)" d="M125 68h6" />
<path stroke="rgba(240,44,51,0.13725490196078433)" d="M131 68h1" />
<path stroke="rgba(234,50,56,0.4823529411764706)" d="M137 68h1" />
<path stroke="rgba(221,17,26,0.11764705882352941)" d="M156 68h1" />
<path stroke="rgba(246,26,35,0.11372549019607843)" d="M168 68h1" />
<path stroke="rgba(225,72,76,0.5294117647058824)" d="M187 68h1" />
<path stroke="rgba(231,65,71,0.16862745098039217)" d="M6 69h1M6 70h1M6 71h1M6 72h1M6 73h1M6 74h1" />
<path stroke="rgba(228,75,82,0.2549019607843137)" d="M7 69h5M132 69h5M7 70h5M132 70h5M7 71h5M132 71h5M7 72h5M132 72h5M7 73h5M132 73h5M7 74h5M132 74h5" />
<path stroke="rgba(227,76,82,0.5019607843137255)" d="M12 69h1M12 70h1M12 71h1M12 72h1M12 73h1M12 74h1" />
<path stroke="rgba(226,75,84,0.8352941176470589)" d="M19 69h6M144 69h6M19 70h6M144 70h6M19 71h6M144 71h6M19 72h6M144 72h6M19 73h6M144 73h6M19 74h6M144 74h6" />
<path stroke="rgba(128,0,0,0.00784313725490196)" d="M25 69h6M150 69h6M25 70h6M150 70h6M25 71h6M150 71h6M25 72h6M150 72h6M25 73h6M150 73h6M25 74h6M150 74h6" />
<path stroke="rgba(226,75,84,0.8)" d="M50 69h6M175 69h6M50 70h6M175 70h6M50 71h6M175 71h6M50 72h6M175 72h6M50 73h6M175 73h6M50 74h6M175 74h6" />
<path stroke="rgba(227,76,83,0.7803921568627451)" d="M62 69h1M62 70h1M62 71h1M62 72h1M62 73h1M62 74h1" />
<path stroke="rgba(229,76,82,0.3411764705882353)" d="M63 69h5M63 70h5M63 71h5M63 72h5M63 73h5M63 74h5" />
<path stroke="rgba(229,76,83,0.4235294117647059)" d="M68 69h1M68 70h1M68 71h1M68 72h1M68 73h1M68 74h1" />
<path stroke="rgba(226,74,83,0.592156862745098)" d="M69 69h6M69 70h6M69 71h6M69 72h6M69 73h6M69 74h6M112 94h1M112 95h1M112 96h1M112 97h1M112 98h1M112 99h1" />
<path stroke="rgba(226,74,83,0.5529411764705883)" d="M75 69h6M75 70h6M75 71h6M75 72h6M75 73h6M75 74h6" />
<path stroke="rgba(226,73,84,0.27450980392156865)" d="M81 69h1M81 70h1M81 71h1M81 72h1M81 73h1M81 74h1" />
<path stroke="rgba(245,24,29,0.20784313725490197)" d="M118 69h1M118 70h1M118 71h1M118 72h1M118 73h1M118 74h1" />
<path stroke="rgba(225,76,84,0.6078431372549019)" d="M119 69h6M119 70h6M119 71h6M119 72h6M119 73h6M119 74h6" />
<path stroke="rgba(226,75,83,0.5764705882352941)" d="M125 69h6M125 70h6M125 71h6M125 72h6M125 73h6M125 74h6M12 107h1M12 108h1M12 109h1M12 110h1M12 111h1" />
<path stroke="rgba(226,75,82,0.41568627450980394)" d="M131 69h1M131 70h1M131 71h1M131 72h1M131 73h1M131 74h1M69 88h6M69 89h6M69 90h6M69 91h6M69 92h6M69 93h6" />
<path stroke="rgba(226,75,83,0.6274509803921569)" d="M137 69h1M137 70h1M137 71h1M137 72h1M137 73h1M137 74h1M125 87h6M63 100h5M188 100h6M63 101h5M188 101h6M63 102h5M188 102h6M63 103h5M188 103h6M63 104h5M188 104h6M63 105h5M188 105h6" />
<path stroke="rgba(226,75,84,0.8980392156862745)" d="M181 69h1M181 70h1M181 71h1M181 72h1M181 73h1M181 74h1M56 112h1" />
<path stroke="rgba(227,75,82,0.6666666666666666)" d="M187 69h1M187 70h1M187 71h1M187 72h1M187 73h1M187 74h1M168 119h1M168 120h1M168 121h1M168 122h1M168 123h1M168 124h1" />
<path stroke="rgba(228,74,83,0.33725490196078434)" d="M188 69h6M188 70h6M188 71h6M188 72h6M188 73h6M188 74h6" />
<path stroke="rgba(226,75,84,0.34509803921568627)" d="M6 75h1M6 76h1M6 77h1M6 78h1M6 79h1M6 80h1" />
<path stroke="rgba(226,75,83,0.5176470588235295)" d="M7 75h5M132 75h5M7 76h5M132 76h5M7 77h5M132 77h5M7 78h5M132 78h5M7 79h5M132 79h5M7 80h5M132 80h5M100 107h6M100 108h6M100 109h6M100 110h6M100 111h6" />
<path stroke="rgba(226,75,83,0.6784313725490196)" d="M12 75h1M131 75h1M12 76h1M131 76h1M12 77h1M131 77h1M12 78h1M131 78h1M12 79h1M131 79h1M12 80h1M131 80h1M131 81h1M82 94h5M82 95h5M82 96h5M82 97h5M82 98h5M82 99h5" />
<path stroke="rgba(225,74,82,0.4980392156862745)" d="M19 75h6M144 75h6M19 76h6M144 76h6M19 77h6M144 77h6M19 78h6M144 78h6M19 79h6M144 79h6M19 80h6M144 80h6" />
<path stroke="rgba(227,76,82,0.4627450980392157)" d="M50 75h6M175 75h6M50 76h6M175 76h6M50 77h6M175 77h6M50 78h6M175 78h6M50 79h6M175 79h6M50 80h6M175 80h6" />
<path stroke="rgba(226,76,83,0.8196078431372549)" d="M56 75h1M69 75h6M56 76h1M69 76h6M56 77h1M69 77h6M56 78h1M69 78h6M56 79h1M69 79h6M56 80h1M69 80h6" />
<path stroke="rgba(225,75,83,0.8627450980392157)" d="M62 75h1M62 76h1M62 77h1M62 78h1M62 79h1M62 80h1M187 87h1" />
<path stroke="rgba(225,74,83,0.592156862745098)" d="M63 75h5M188 75h6M63 76h5M188 76h6M63 77h5M188 77h6M63 78h5M188 78h6M63 79h5M188 79h6M63 80h5M188 80h6" />
<path stroke="rgba(225,74,82,0.6666666666666666)" d="M68 75h1M68 76h1M68 77h1M68 78h1M68 79h1M68 80h1" />
<path stroke="rgba(226,75,83,0.996078431372549)" d="M75 75h6M75 76h6M75 77h6M75 78h6M75 79h6M75 80h6M100 82h6M100 83h6M100 84h6M100 85h6M100 86h6M82 107h5M119 107h6M82 108h5M119 108h6M82 109h5M119 109h6M82 110h5M119 110h6M82 111h5M119 111h6M19 113h6M144 113h6M19 114h6M144 114h6M19 115h6M144 115h6M19 116h6M144 116h6M19 117h6M144 117h6M44 125h6M169 125h6M44 126h6M169 126h6M44 127h6M169 127h6M44 128h6M169 128h6M44 129h6M169 129h6M44 130h6M169 130h6" />
<path stroke="rgba(227,71,82,0.5333333333333333)" d="M81 75h1M81 76h1M81 77h1M81 78h1M81 79h1M81 80h1" />
<path stroke="rgba(228,67,81,0.07450980392156863)" d="M82 75h5M82 76h5M82 77h5M82 78h5M82 79h5M82 80h5M88 87h6M125 107h6M125 108h6M125 109h6M125 110h6M125 111h6M107 132h5M107 133h5M107 134h5M107 135h5M107 136h5M82 137h5M113 137h5" />
<path stroke="rgba(227,57,85,0.03529411764705882)" d="M87 75h1M87 76h1M87 77h1M87 78h1M87 79h1M87 80h1M107 137h5" />
<path stroke="rgba(226,75,82,0.5215686274509804)" d="M94 75h6M94 76h6M94 77h6M94 78h6M94 79h6M94 80h6" />
<path stroke="rgba(227,61,71,0.21176470588235294)" d="M106 75h1M106 76h1M106 77h1M106 78h1M106 79h1M106 80h1" />
<path stroke="rgba(255,0,128,0.00784313725490196)" d="M112 75h1M112 76h1M112 77h1M112 78h1M112 79h1M112 80h1" />
<path stroke="rgba(219,36,73,0.027450980392156862)" d="M113 75h5M113 76h5M113 77h5M113 78h5M113 79h5M113 80h5" />
<path stroke="rgba(221,49,77,0.34901960784313724)" d="M118 75h1M118 76h1M118 77h1M118 78h1M118 79h1M118 80h1" />
<path stroke="rgba(226,75,83,0.8392156862745098)" d="M125 75h6M125 76h6M125 77h6M125 78h6M125 79h6M125 80h6M137 87h1M81 94h1M81 95h1M81 96h1M81 97h1M81 98h1M81 99h1M106 107h1M106 108h1M106 109h1M106 110h1M106 111h1M19 112h6M144 112h6" />
<path stroke="rgba(226,75,83,0.7568627450980392)" d="M137 75h1M137 76h1M137 77h1M137 78h1M137 79h1M137 80h1" />
<path stroke="rgba(226,75,84,0.7294117647058823)" d="M181 75h1M181 76h1M181 77h1M181 78h1M181 79h1M181 80h1M63 87h5M188 87h6" />
<path stroke="rgba(225,75,83,0.796078431372549)" d="M187 75h1M187 76h1M187 77h1M187 78h1M187 79h1M187 80h1" />
<path stroke="rgba(227,75,82,0.38823529411764707)" d="M6 81h1" />
<path stroke="rgba(228,75,82,0.5843137254901961)" d="M7 81h5M132 81h5" />
<path stroke="rgba(225,75,82,0.8)" d="M18 81h1" />
<path stroke="rgba(226,74,83,0.40784313725490196)" d="M19 81h6M144 81h6" />
<path stroke="rgba(226,74,82,0.3764705882352941)" d="M50 81h6M175 81h6" />
<path stroke="rgba(225,74,83,0.792156862745098)" d="M56 81h1M12 94h1M12 95h1M12 96h1M12 97h1M12 98h1M12 99h1M113 106h5" />
<path stroke="rgba(226,75,83,0.6509803921568628)" d="M63 81h5M188 81h6" />
<path stroke="rgba(225,74,83,0.6745098039215687)" d="M68 81h1" />
<path stroke="rgba(226,75,82,0.7176470588235294)" d="M69 81h6" />
<path stroke="#e24b53" d="M75 81h6M100 87h6M119 106h6M82 112h5M19 118h6M144 118h6M168 125h1M168 126h1M168 127h1M168 128h1M168 129h1M168 130h1" />
<path stroke="rgba(226,72,82,0.5843137254901961)" d="M81 81h1" />
<path stroke="rgba(226,70,81,0.17254901960784313)" d="M82 81h5" />
<path stroke="rgba(226,76,83,0.7137254901960784)" d="M94 81h6" />
<path stroke="rgba(224,74,82,0.8196078431372549)" d="M100 81h6" />
<path stroke="rgba(229,68,77,0.30980392156862746)" d="M106 81h1" />
<path stroke="rgba(238,68,68,0.058823529411764705)" d="M107 81h5" />
<path stroke="rgba(221,68,68,0.058823529411764705)" d="M112 81h1M50 150h6M175 150h6M50 151h6M175 151h6M50 152h6M175 152h6M50 153h6M175 153h6M50 154h6M175 154h6M50 155h6M175 155h6" />
<path stroke="rgba(219,55,73,0.054901960784313725)" d="M113 81h5" />
<path stroke="rgba(225,60,79,0.3686274509803922)" d="M118 81h1" />
<path stroke="rgba(226,75,83,0.7686274509803922)" d="M125 81h6M81 118h1M168 132h1M168 133h1M168 134h1M168 135h1M168 136h1" />
<path stroke="rgba(226,74,83,0.792156862745098)" d="M137 81h1" />
<path stroke="rgba(224,74,83,0.6862745098039216)" d="M181 81h1" />
<path stroke="rgba(225,75,83,0.8235294117647058)" d="M187 81h1" />
<path stroke="rgba(227,76,83,0.43529411764705883)" d="M6 82h1M6 83h1M6 84h1M6 85h1M6 86h1" />
<path stroke="rgba(228,75,84,0.6549019607843137)" d="M7 82h5M132 82h5M7 83h5M132 83h5M7 84h5M132 84h5M7 85h5M132 85h5M7 86h5M132 86h5" />
<path stroke="rgba(226,75,85,0.7686274509803922)" d="M12 82h1M12 83h1M12 84h1M12 85h1M12 86h1" />
<path stroke="rgba(227,75,84,0.7725490196078432)" d="M18 82h1M18 83h1M18 84h1M18 85h1M18 86h1" />
<path stroke="rgba(227,75,84,0.3215686274509804)" d="M19 82h6M144 82h6M19 83h6M144 83h6M19 84h6M144 84h6M19 85h6M144 85h6M19 86h6M144 86h6" />
<path stroke="rgba(224,75,82,0.29411764705882354)" d="M50 82h6M175 82h6M50 83h6M175 83h6M50 84h6M175 84h6M50 85h6M175 85h6M50 86h6M175 86h6M19 87h6M144 87h6" />
<path stroke="rgba(225,75,82,0.7647058823529411)" d="M56 82h1M56 83h1M56 84h1M56 85h1M56 86h1M18 87h1" />
<path stroke="rgba(226,76,84,0.9019607843137255)" d="M62 82h1M62 83h1M62 84h1M62 85h1M62 86h1" />
<path stroke="rgba(227,76,84,0.7137254901960784)" d="M63 82h5M188 82h6M63 83h5M188 83h6M63 84h5M188 84h6M63 85h5M188 85h6M63 86h5M188 86h6" />
<path stroke="rgba(226,75,84,0.6823529411764706)" d="M68 82h1M68 83h1M68 84h1M68 85h1M68 86h1M7 87h5M132 87h5" />
<path stroke="rgba(226,74,82,0.6196078431372549)" d="M69 82h6M69 83h6M69 84h6M69 85h6M69 86h6M100 106h6" />
<path stroke="rgba(227,74,82,0.6352941176470588)" d="M81 82h1M81 83h1M81 84h1M81 85h1M81 86h1" />
<path stroke="rgba(226,73,80,0.27450980392156865)" d="M82 82h5M82 83h5M82 84h5M82 85h5M82 86h5" />
<path stroke="rgba(226,73,80,0.13725490196078433)" d="M87 82h1M87 83h1M87 84h1M87 85h1M87 86h1" />
<path stroke="rgba(226,76,84,0.9058823529411765)" d="M94 82h6M94 83h6M94 84h6M94 85h6M94 86h6" />
<path stroke="rgba(228,73,83,0.4117647058823529)" d="M106 82h1M106 83h1M106 84h1M106 85h1M106 86h1" />
<path stroke="rgba(230,74,82,0.12156862745098039)" d="M107 82h5M107 83h5M107 84h5M107 85h5M107 86h5" />
<path stroke="rgba(228,73,82,0.10980392156862745)" d="M112 82h1M112 83h1M112 84h1M112 85h1M112 86h1" />
<path stroke="rgba(232,70,81,0.08627450980392157)" d="M113 82h5M113 83h5M113 84h5M113 85h5M113 86h5" />
<path stroke="rgba(229,72,82,0.38823529411764707)" d="M118 82h1M118 83h1M118 84h1M118 85h1M118 86h1" />
<path stroke="rgba(227,76,84,0.7019607843137254)" d="M125 82h6M125 83h6M125 84h6M125 85h6M125 86h6" />
<path stroke="rgba(227,75,84,0.6784313725490196)" d="M131 82h1M131 83h1M131 84h1M131 85h1M131 86h1" />
<path stroke="rgba(227,75,85,0.8274509803921568)" d="M137 82h1M137 83h1M137 84h1M137 85h1M137 86h1" />
<path stroke="rgba(226,76,83,0.6470588235294118)" d="M181 82h1M181 83h1M181 84h1M181 85h1M181 86h1" />
<path stroke="rgba(226,76,84,0.8549019607843137)" d="M187 82h1M187 83h1M187 84h1M187 85h1M187 86h1" />
<path stroke="rgba(226,75,82,0.45098039215686275)" d="M6 87h1" />
<path stroke="rgba(226,75,83,0.7843137254901961)" d="M12 87h1" />
<path stroke="rgba(224,73,81,0.25882352941176473)" d="M50 87h6M175 87h6" />
<path stroke="rgba(224,74,82,0.7529411764705882)" d="M56 87h1" />
<path stroke="rgba(225,74,82,0.6588235294117647)" d="M68 87h1" />
<path stroke="rgba(226,73,81,0.5176470588235295)" d="M69 87h6" />
<path stroke="rgba(226,74,82,0.6862745098039216)" d="M81 87h1M162 138h1M162 139h1M162 140h1M162 141h1M162 142h1M162 143h1" />
<path stroke="rgba(228,72,81,0.37254901960784315)" d="M82 87h5" />
<path stroke="rgba(228,72,81,0.2235294117647059)" d="M87 87h1" />
<path stroke="rgba(226,76,84,0.9529411764705882)" d="M94 87h6" />
<path stroke="rgba(226,74,82,0.5137254901960784)" d="M106 87h1" />
<path stroke="rgba(225,74,81,0.27058823529411763)" d="M107 87h5M19 88h6M144 88h6M19 89h6M144 89h6M19 90h6M144 90h6M19 91h6M144 91h6M19 92h6M144 92h6M19 93h6M144 93h6" />
<path stroke="rgba(229,70,79,0.22745098039215686)" d="M112 87h1" />
<path stroke="rgba(227,69,76,0.1450980392156863)" d="M113 87h5" />
<path stroke="rgba(227,73,82,0.42745098039215684)" d="M118 87h1" />
<path stroke="rgba(226,75,82,0.6549019607843137)" d="M131 87h1" />
<path stroke="rgba(225,75,81,0.6274509803921569)" d="M181 87h1" />
<path stroke="rgba(225,74,83,0.47058823529411764)" d="M6 88h1M6 89h1M6 90h1M6 91h1M6 92h1M6 93h1" />
<path stroke="rgba(225,75,83,0.7098039215686275)" d="M7 88h5M132 88h5M7 89h5M132 89h5M7 90h5M132 90h5M7 91h5M132 91h5M7 92h5M132 92h5M7 93h5M132 93h5M62 144h1M62 145h1M62 146h1M62 147h1M62 148h1M62 149h1" />
<path stroke="rgba(225,75,83,0.803921568627451)" d="M12 88h1M12 89h1M12 90h1M12 91h1M12 92h1M12 93h1" />
<path stroke="rgba(225,75,83,0.7568627450980392)" d="M18 88h1M18 89h1M18 90h1M18 91h1M18 92h1M18 93h1" />
<path stroke="rgba(224,75,79,0.22745098039215686)" d="M50 88h6M175 88h6M50 89h6M175 89h6M50 90h6M175 90h6M50 91h6M175 91h6M50 92h6M175 92h6M50 93h6M175 93h6" />
<path stroke="rgba(225,76,82,0.7411764705882353)" d="M56 88h1M56 89h1M56 90h1M56 91h1M56 92h1M56 93h1" />
<path stroke="rgba(225,75,83,0.7450980392156863)" d="M63 88h5M188 88h6M63 89h5M188 89h6M63 90h5M188 90h6M63 91h5M188 91h6M63 92h5M188 92h6M63 93h5M188 93h6M75 112h6" />
<path stroke="rgba(225,76,82,0.6352941176470588)" d="M68 88h1M68 89h1M68 90h1M68 91h1M68 92h1M68 93h1" />
<path stroke="rgba(227,75,83,0.7372549019607844)" d="M81 88h1M81 89h1M81 90h1M81 91h1M81 92h1M81 93h1" />
<path stroke="rgba(228,74,82,0.4745098039215686)" d="M82 88h5M82 89h5M82 90h5M82 91h5M82 92h5M82 93h5" />
<path stroke="rgba(229,74,81,0.30980392156862746)" d="M87 88h1M87 89h1M87 90h1M87 91h1M87 92h1M87 93h1M44 132h6M169 132h6M44 133h6M169 133h6M44 134h6M169 134h6M44 135h6M169 135h6M44 136h6M169 136h6" />
<path stroke="rgba(228,74,81,0.14901960784313725)" d="M88 88h6M88 89h6M88 90h6M88 91h6M88 92h6M88 93h6M31 113h1M31 114h1M31 115h1M31 116h1M31 117h1" />
<path stroke="rgba(224,75,83,0.615686274509804)" d="M106 88h1M106 89h1M106 90h1M106 91h1M106 92h1M106 93h1" />
<path stroke="rgba(224,73,83,0.4235294117647059)" d="M107 88h5M107 89h5M107 90h5M107 91h5M107 92h5M107 93h5" />
<path stroke="rgba(223,72,80,0.34901960784313724)" d="M112 88h1M112 89h1M112 90h1M112 91h1M112 92h1M112 93h1" />
<path stroke="rgba(226,74,78,0.20392156862745098)" d="M113 88h5M113 89h5M113 90h5M113 91h5M113 92h5M113 93h5" />
<path stroke="rgba(225,75,79,0.4666666666666667)" d="M118 88h1M118 89h1M118 90h1M118 91h1M118 92h1M118 93h1" />
<path stroke="rgba(226,75,83,0.5568627450980392)" d="M125 88h6M125 89h6M125 90h6M125 91h6M125 92h6M125 93h6" />
<path stroke="rgba(225,74,82,0.6313725490196078)" d="M131 88h1M131 89h1M131 90h1M131 91h1M131 92h1M131 93h1" />
<path stroke="rgba(225,75,83,0.8549019607843137)" d="M137 88h1M137 89h1M137 90h1M137 91h1M137 92h1M137 93h1" />
<path stroke="rgba(226,75,82,0.611764705882353)" d="M181 88h1M181 89h1M181 90h1M181 91h1M181 92h1M181 93h1" />
<path stroke="rgba(225,75,83,0.8705882352941177)" d="M187 88h1M187 89h1M187 90h1M187 91h1M187 92h1M187 93h1" />
<path stroke="rgba(224,74,83,0.4588235294117647)" d="M6 94h1M6 95h1M6 96h1M6 97h1M6 98h1M6 99h1" />
<path stroke="rgba(225,75,83,0.6901960784313725)" d="M7 94h5M132 94h5M7 95h5M132 95h5M7 96h5M132 96h5M7 97h5M132 97h5M7 98h5M132 98h5M7 99h5M132 99h5" />
<path stroke="rgba(225,74,83,0.7725490196078432)" d="M18 94h1M18 95h1M18 96h1M18 97h1M18 98h1M18 99h1" />
<path stroke="rgba(224,72,82,0.3176470588235294)" d="M19 94h6M144 94h6M19 95h6M144 95h6M19 96h6M144 96h6M19 97h6M144 97h6M19 98h6M144 98h6M19 99h6M144 99h6" />
<path stroke="rgba(224,75,84,0.22745098039215686)" d="M50 94h6M175 94h6M50 95h6M175 95h6M50 96h6M175 96h6M50 97h6M175 97h6M50 98h6M175 98h6M50 99h6M175 99h6" />
<path stroke="rgba(225,76,84,0.7411764705882353)" d="M56 94h1M56 95h1M56 96h1M56 97h1M56 98h1M56 99h1" />
<path stroke="rgba(226,75,84,0.9058823529411765)" d="M62 94h1M62 95h1M62 96h1M62 97h1M62 98h1M62 99h1" />
<path stroke="rgba(227,75,84,0.7176470588235294)" d="M63 94h5M188 94h6M63 95h5M188 95h6M63 96h5M188 96h6M63 97h5M188 97h6M63 98h5M188 98h6M63 99h5M188 99h6" />
<path stroke="rgba(228,75,82,0.5490196078431373)" d="M68 94h1M68 95h1M68 96h1M68 97h1M68 98h1M68 99h1" />
<path stroke="rgba(227,74,79,0.21568627450980393)" d="M69 94h6M69 95h6M69 96h6M69 97h6M69 98h6M69 99h6" />
<path stroke="rgba(227,73,82,0.5333333333333333)" d="M87 94h1M87 95h1M87 96h1M87 97h1M87 98h1M87 99h1" />
<path stroke="rgba(227,74,84,0.39215686274509803)" d="M88 94h6M88 95h6M88 96h6M88 97h6M88 98h6M88 99h6" />
<path stroke="rgba(226,73,82,0.3411764705882353)" d="M113 94h5M113 95h5M113 96h5M113 97h5M113 98h5M113 99h5" />
<path stroke="rgba(226,73,82,0.5607843137254902)" d="M118 94h1M118 95h1M118 96h1M118 97h1M118 98h1M118 99h1" />
<path stroke="rgba(225,74,82,0.403921568627451)" d="M125 94h6M125 95h6M125 96h6M125 97h6M125 98h6M125 99h6" />
<path stroke="rgba(226,73,83,0.5450980392156862)" d="M131 94h1M131 95h1M131 96h1M131 97h1M131 98h1M131 99h1" />
<path stroke="rgba(225,75,83,0.8431372549019608)" d="M137 94h1M137 95h1M137 96h1M137 97h1M137 98h1M137 99h1" />
<path stroke="rgba(226,75,83,0.611764705882353)" d="M181 94h1M181 95h1M181 96h1M181 97h1M181 98h1M181 99h1M94 112h6M75 113h6M75 114h6M75 115h6M75 116h6M75 117h6M50 125h6M175 125h6M50 126h6M175 126h6M50 127h6M175 127h6M50 128h6M175 128h6M50 129h6M175 129h6M50 130h6M175 130h6" />
<path stroke="rgba(226,75,84,0.8588235294117647)" d="M187 94h1M187 95h1M187 96h1M187 97h1M187 98h1M187 99h1M56 107h1M56 108h1M56 109h1M56 110h1M56 111h1" />
<path stroke="rgba(224,75,82,0.38823529411764707)" d="M6 100h1M6 101h1M6 102h1M6 103h1M6 104h1M6 105h1" />
<path stroke="rgba(226,75,84,0.5843137254901961)" d="M7 100h5M132 100h5M7 101h5M132 101h5M7 102h5M132 102h5M7 103h5M132 103h5M7 104h5M132 104h5M7 105h5M132 105h5M50 107h6M175 107h6M50 108h6M175 108h6M50 109h6M175 109h6M50 110h6M175 110h6M50 111h6M175 111h6" />
<path stroke="rgba(226,75,85,0.7215686274509804)" d="M12 100h1M12 101h1M12 102h1M12 103h1M12 104h1M12 105h1" />
<path stroke="rgba(224,74,83,0.8196078431372549)" d="M18 100h1M18 101h1M18 102h1M18 103h1M18 104h1M18 105h1" />
<path stroke="rgba(225,75,81,0.4666666666666667)" d="M19 100h6M144 100h6M19 101h6M144 101h6M19 102h6M144 102h6M19 103h6M144 103h6M19 104h6M144 104h6M19 105h6M144 105h6" />
<path stroke="rgba(227,74,83,0.3254901960784314)" d="M50 100h6M175 100h6M50 101h6M175 101h6M50 102h6M175 102h6M50 103h6M175 103h6M50 104h6M175 104h6M50 105h6M175 105h6" />
<path stroke="rgba(227,75,83,0.7725490196078432)" d="M56 100h1M56 101h1M56 102h1M56 103h1M56 104h1M56 105h1M112 125h1M112 126h1M112 127h1M112 128h1M112 129h1M112 130h1" />
<path stroke="rgba(226,75,83,0.8745098039215686)" d="M62 100h1M62 101h1M62 102h1M62 103h1M62 104h1M62 105h1M162 132h1M162 133h1M162 134h1M162 135h1M162 136h1M168 137h1" />
<path stroke="rgba(225,70,75,0.42745098039215684)" d="M68 100h1M68 101h1M68 102h1M68 103h1M68 104h1M68 105h1" />
<path stroke="rgba(226,75,84,0.9803921568627451)" d="M75 100h6M75 101h6M75 102h6M75 103h6M75 104h6M75 105h6M168 138h1M168 139h1M168 140h1M168 141h1M168 142h1M168 143h1" />
<path stroke="rgba(227,75,83,0.8784313725490196)" d="M82 100h5M82 101h5M82 102h5M82 103h5M82 104h5M82 105h5" />
<path stroke="rgba(226,74,82,0.7529411764705882)" d="M87 100h1M87 101h1M87 102h1M87 103h1M87 104h1M87 105h1" />
<path stroke="rgba(226,76,84,0.6313725490196078)" d="M88 100h6M88 101h6M88 102h6M88 103h6M88 104h6M88 105h6" />
<path stroke="rgba(226,75,83,0.8235294117647058)" d="M100 100h6M100 101h6M100 102h6M100 103h6M100 104h6M100 105h6" />
<path stroke="rgba(226,75,82,0.9215686274509803)" d="M106 100h1M106 101h1M106 102h1M106 103h1M106 104h1M106 105h1" />
<path stroke="rgba(225,75,83,0.8274509803921568)" d="M112 100h1M112 101h1M112 102h1M112 103h1M112 104h1M112 105h1" />
<path stroke="rgba(225,74,83,0.5411764705882353)" d="M113 100h5M113 101h5M113 102h5M113 103h5M113 104h5M113 105h5" />
<path stroke="rgba(225,73,84,0.6941176470588235)" d="M118 100h1M118 101h1M118 102h1M118 103h1M118 104h1M118 105h1" />
<path stroke="rgba(226,74,82,0.24313725490196078)" d="M125 100h6M125 101h6M125 102h6M125 103h6M125 104h6M125 105h6" />
<path stroke="rgba(226,73,83,0.4117647058823529)" d="M131 100h1M131 101h1M131 102h1M131 103h1M131 104h1M131 105h1" />
<path stroke="rgba(226,74,85,0.792156862745098)" d="M137 100h1M137 101h1M137 102h1M137 103h1M137 104h1M137 105h1M181 107h1M181 108h1M181 109h1M181 110h1M181 111h1" />
<path stroke="rgba(226,75,83,0.6627450980392157)" d="M181 100h1M181 101h1M181 102h1M181 103h1M181 104h1M181 105h1M107 125h5M107 126h5M107 127h5M107 128h5M107 129h5M107 130h5M38 144h6M163 144h5M38 145h6M163 145h5M38 146h6M163 146h5M38 147h6M163 147h5M38 148h6M163 148h5M38 149h6M163 149h5" />
<path stroke="rgba(224,72,83,0.2901960784313726)" d="M6 106h1M68 107h1M68 108h1M68 109h1M68 110h1M68 111h1" />
<path stroke="rgba(225,73,84,0.4392156862745098)" d="M7 106h5M132 106h5" />
<path stroke="rgba(225,74,83,0.6235294117647059)" d="M12 106h1" />
<path stroke="rgba(225,75,81,0.6627450980392157)" d="M19 106h6M144 106h6" />
<path stroke="rgba(227,74,82,0.4980392156862745)" d="M50 106h6M175 106h6" />
<path stroke="rgba(226,75,83,0.8274509803921568)" d="M56 106h1M119 118h6" />
<path stroke="rgba(225,72,78,0.3333333333333333)" d="M68 106h1" />
<path stroke="rgba(226,75,84,0.8666666666666667)" d="M75 106h6" />
<path stroke="rgba(226,75,84,0.9098039215686274)" d="M81 106h1M181 118h1" />
<path stroke="rgba(226,75,83,0.9568627450980393)" d="M82 106h5M87 107h1M87 108h1M87 109h1M87 110h1M87 111h1" />
<path stroke="rgba(226,74,83,0.8862745098039215)" d="M87 106h1M56 118h1" />
<path stroke="rgba(226,76,84,0.8235294117647058)" d="M88 106h6" />
<path stroke="rgba(224,76,83,0.7843137254901961)" d="M94 106h6" />
<path stroke="rgba(226,75,83,0.8666666666666667)" d="M106 106h1M81 112h1" />
<path stroke="rgba(226,76,83,0.9882352941176471)" d="M107 106h5M156 125h1M156 126h1M156 127h1M156 128h1M156 129h1M156 130h1" />
<path stroke="rgba(225,75,82,0.9215686274509803)" d="M112 106h1" />
<path stroke="rgba(225,75,83,0.8588235294117647)" d="M118 106h1" />
<path stroke="rgba(224,70,77,0.12941176470588237)" d="M125 106h6" />
<path stroke="rgba(227,71,81,0.2823529411764706)" d="M131 106h1" />
<path stroke="rgba(224,74,84,0.7176470588235294)" d="M137 106h1" />
<path stroke="rgba(226,75,83,0.7490196078431373)" d="M181 106h1M187 106h1" />
<path stroke="rgba(222,74,82,0.24313725490196078)" d="M6 107h1M6 108h1M6 109h1M6 110h1M6 111h1" />
<path stroke="rgba(225,73,84,0.3686274509803922)" d="M7 107h5M132 107h5M7 108h5M132 108h5M7 109h5M132 109h5M7 110h5M132 110h5M7 111h5M132 111h5" />
<path stroke="rgba(226,75,83,0.7607843137254902)" d="M19 107h6M144 107h6M19 108h6M144 108h6M19 109h6M144 109h6M19 110h6M144 110h6M19 111h6M144 111h6" />
<path stroke="rgba(225,75,82,0.4392156862745098)" d="M63 107h5M188 107h6M63 108h5M188 108h6M63 109h5M188 109h6M63 110h5M188 110h6M63 111h5M188 111h6" />
<path stroke="rgba(227,75,84,0.8117647058823529)" d="M75 107h6M75 108h6M75 109h6M75 110h6M75 111h6" />
<path stroke="rgba(226,75,83,0.9019607843137255)" d="M81 107h1M81 108h1M81 109h1M81 110h1M81 111h1" />
<path stroke="rgba(226,76,84,0.9215686274509803)" d="M88 107h6M113 107h5M88 108h6M113 108h5M88 109h6M113 109h5M88 110h6M113 110h5M88 111h6M113 111h5" />
<path stroke="rgba(225,76,83,0.7019607843137254)" d="M94 107h6M94 108h6M94 109h6M94 110h6M94 111h6" />
<path stroke="rgba(226,76,84,0.9725490196078431)" d="M112 107h1M112 108h1M112 109h1M112 110h1M112 111h1" />
<path stroke="rgba(228,68,82,0.2196078431372549)" d="M131 107h1M131 108h1M131 109h1M131 110h1M131 111h1" />
<path stroke="rgba(226,73,84,0.6823529411764706)" d="M137 107h1M137 108h1M137 109h1M137 110h1M137 111h1" />
<path stroke="rgba(224,75,84,0.7176470588235294)" d="M187 107h1M187 108h1M187 109h1M187 110h1M187 111h1" />
<path stroke="rgba(220,75,81,0.17254901960784313)" d="M6 112h1" />
<path stroke="rgba(225,72,80,0.2627450980392157)" d="M7 112h5M132 112h5" />
<path stroke="rgba(223,72,80,0.4980392156862745)" d="M12 112h1M88 131h6" />
<path stroke="rgba(225,75,84,0.9803921568627451)" d="M13 112h5M138 112h6" />
<path stroke="rgba(225,75,83,0.9294117647058824)" d="M18 112h1" />
<path stroke="rgba(224,71,82,0.09803921568627451)" d="M25 112h6M150 112h6M156 113h1M156 114h1M156 115h1M156 116h1M156 117h1M25 132h6M112 132h1M150 132h6M25 133h6M112 133h1M150 133h6M25 134h6M112 134h1M150 134h6M25 135h6M112 135h1M150 135h6M25 136h6M112 136h1M150 136h6" />
<path stroke="rgba(234,64,85,0.047058823529411764)" d="M31 112h1M44 112h6M125 112h6M169 112h6M168 113h1M168 114h1M168 115h1M168 116h1M168 117h1M106 132h1M106 133h1M106 134h1M106 135h1M106 136h1M25 137h6M112 137h1M150 137h6" />
<path stroke="rgba(227,75,84,0.7058823529411765)" d="M50 112h6M175 112h6M81 119h1M81 120h1M81 121h1M81 122h1M81 123h1M81 124h1" />
<path stroke="rgba(226,76,84,0.996078431372549)" d="M57 112h5M182 112h5" />
<path stroke="rgba(225,74,82,0.7725490196078432)" d="M62 112h1" />
<path stroke="rgba(225,75,81,0.3333333333333333)" d="M63 112h5M188 112h6" />
<path stroke="rgba(223,73,82,0.2196078431372549)" d="M68 112h1" />
<path stroke="rgba(226,75,83,0.9686274509803922)" d="M87 112h1" />
<path stroke="rgba(226,76,84,0.9450980392156862)" d="M88 112h6M113 112h5" />
<path stroke="rgba(226,74,81,0.4196078431372549)" d="M100 112h6" />
<path stroke="rgba(226,75,83,0.803921568627451)" d="M106 112h1M81 113h1M81 114h1M81 115h1M81 116h1M81 117h1" />
<path stroke="rgba(226,76,84,0.9803921568627451)" d="M112 112h1" />
<path stroke="rgba(225,75,83,0.9490196078431372)" d="M118 112h1" />
<path stroke="rgba(226,75,83,0.9607843137254902)" d="M119 112h6" />
<path stroke="rgba(222,72,78,0.15294117647058825)" d="M131 112h1M63 138h5M188 138h6M63 139h5M188 139h6M63 140h5M188 140h6M63 141h5M188 141h6M63 142h5M188 142h6M63 143h5M188 143h6" />
<path stroke="rgba(223,64,96,0.03137254901960784)" d="M156 112h1" />
<path stroke="rgba(255,64,64,0.01568627450980392)" d="M168 112h1M56 156h6M181 156h6" />
<path stroke="rgba(226,75,83,0.8509803921568627)" d="M181 112h1" />
<path stroke="rgba(223,74,81,0.6627450980392157)" d="M187 112h1" />
<path stroke="rgba(227,85,85,0.03529411764705882)" d="M6 113h1M6 114h1M6 115h1M6 116h1M6 117h1M7 118h5M132 118h5M156 144h1M156 145h1M156 146h1M156 147h1M156 148h1M156 149h1" />
<path stroke="rgba(219,73,73,0.054901960784313725)" d="M7 113h5M132 113h5M7 114h5M132 114h5M7 115h5M132 115h5M7 116h5M132 116h5M7 117h5M132 117h5M68 118h1M88 137h6M32 144h5M157 144h5M32 145h5M157 145h5M32 146h5M157 146h5M32 147h5M157 147h5M32 148h5M157 148h5M32 149h5M157 149h5" />
<path stroke="rgba(221,72,77,0.34901960784313724)" d="M12 113h1M12 114h1M12 115h1M12 116h1M12 117h1" />
<path stroke="rgba(225,75,84,0.9411764705882353)" d="M13 113h5M138 113h6M13 114h5M138 114h6M13 115h5M138 115h6M13 116h5M138 116h6M13 117h5M138 117h6" />
<path stroke="rgba(225,75,83,0.9568627450980393)" d="M18 113h1M18 114h1M18 115h1M18 116h1M18 117h1" />
<path stroke="rgba(225,73,83,0.30196078431372547)" d="M25 113h6M150 113h6M25 114h6M150 114h6M25 115h6M150 115h6M25 116h6M150 116h6M25 117h6M150 117h6" />
<path stroke="rgba(227,69,83,0.1450980392156863)" d="M44 113h6M169 113h6M44 114h6M169 114h6M44 115h6M169 115h6M44 116h6M169 116h6M44 117h6M169 117h6" />
<path stroke="rgba(226,75,84,0.9568627450980393)" d="M50 113h6M175 113h6M50 114h6M175 114h6M50 115h6M175 115h6M50 116h6M175 116h6M50 117h6M175 117h6" />
<path stroke="rgba(226,75,84,0.9764705882352941)" d="M56 113h1M56 114h1M56 115h1M56 116h1M56 117h1M107 118h5" />
<path stroke="rgba(226,76,84,0.9882352941176471)" d="M57 113h5M182 113h5M57 114h5M182 114h5M57 115h5M182 115h5M57 116h5M182 116h5M57 117h5M182 117h5" />
<path stroke="rgba(225,74,82,0.6980392156862745)" d="M62 113h1M62 114h1M62 115h1M62 116h1M62 117h1" />
<path stroke="rgba(223,72,80,0.12549019607843137)" d="M63 113h5M188 113h6M63 114h5M188 114h6M63 115h5M188 115h6M63 116h5M188 116h6M63 117h5M188 117h6" />
<path stroke="rgba(219,73,85,0.08235294117647059)" d="M68 113h1M68 114h1M68 115h1M68 116h1M68 117h1" />
<path stroke="rgba(225,74,83,0.43137254901960786)" d="M94 113h6M94 114h6M94 115h6M94 116h6M94 117h6" />
<path stroke="rgba(229,73,82,0.23137254901960785)" d="M100 113h6M100 114h6M100 115h6M100 116h6M100 117h6" />
<path stroke="rgba(227,76,84,0.7411764705882353)" d="M106 113h1M106 114h1M106 115h1M106 116h1M106 117h1" />
<path stroke="rgba(226,75,84,0.9647058823529412)" d="M118 113h1M118 114h1M118 115h1M118 116h1M118 117h1" />
<path stroke="rgba(226,75,84,0.8941176470588236)" d="M119 113h6M119 114h6M119 115h6M119 116h6M119 117h6" />
<path stroke="rgba(219,73,73,0.027450980392156862)" d="M131 113h1M131 114h1M131 115h1M131 116h1M131 117h1M119 137h6M31 144h1M31 145h1M31 146h1M31 147h1M31 148h1M31 149h1" />
<path stroke="rgba(223,74,78,0.4980392156862745)" d="M137 113h1M137 114h1M137 115h1M137 116h1M137 117h1" />
<path stroke="rgba(226,75,84,0.9725490196078431)" d="M181 113h1M181 114h1M181 115h1M181 116h1M181 117h1" />
<path stroke="rgba(224,74,83,0.5568627450980392)" d="M187 113h1M187 114h1M187 115h1M187 116h1M187 117h1" />
<path stroke="rgba(212,85,85,0.023529411764705882)" d="M6 118h1M106 137h1" />
<path stroke="rgba(223,72,75,0.2784313725490196)" d="M12 118h1" />
<path stroke="rgba(224,75,82,0.7647058823529411)" d="M13 118h5M138 118h6" />
<path stroke="rgba(224,74,83,0.8392156862745098)" d="M18 118h1" />
<path stroke="rgba(224,73,82,0.5215686274509804)" d="M25 118h6M150 118h6" />
<path stroke="rgba(225,72,83,0.3607843137254902)" d="M31 118h1" />
<path stroke="rgba(225,75,85,0.2)" d="M32 118h5M157 118h5" />
<path stroke="rgba(223,74,85,0.18823529411764706)" d="M37 118h1" />
<path stroke="rgba(227,72,83,0.1803921568627451)" d="M38 118h6M163 118h5" />
<path stroke="rgba(225,70,82,0.4)" d="M44 118h6M169 118h6" />
<path stroke="rgba(226,75,84,0.9686274509803922)" d="M50 118h6M175 118h6M25 119h6M150 119h6M25 120h6M150 120h6M25 121h6M150 121h6M25 122h6M150 122h6M25 123h6M150 123h6M25 124h6M150 124h6M44 144h6M169 144h6M44 145h6M169 145h6M44 146h6M169 146h6M44 147h6M169 147h6M44 148h6M169 148h6M44 149h6M169 149h6" />
<path stroke="rgba(225,76,84,0.8470588235294118)" d="M57 118h5M182 118h5M50 138h6M175 138h6M50 139h6M175 139h6M50 140h6M175 140h6M50 141h6M175 141h6M50 142h6M175 142h6M50 143h6M175 143h6" />
<path stroke="rgba(225,73,81,0.592156862745098)" d="M62 118h1" />
<path stroke="rgba(219,73,73,0.08235294117647059)" d="M63 118h5M188 118h6" />
<path stroke="rgba(226,75,83,0.5450980392156862)" d="M75 118h6M38 119h6M163 119h5M38 120h6M163 120h5M38 121h6M163 121h5M38 122h6M163 122h5M38 123h6M163 123h5M38 124h6M163 124h5" />
<path stroke="rgba(223,73,82,0.3411764705882353)" d="M94 118h6" />
<path stroke="rgba(236,77,83,0.1568627450980392)" d="M100 118h6" />
<path stroke="rgba(229,76,83,0.7019607843137254)" d="M106 118h1" />
<path stroke="rgba(226,75,84,0.984313725490196)" d="M112 118h1" />
<path stroke="rgba(226,75,83,0.9411764705882353)" d="M118 118h1" />
<path stroke="rgba(191,64,64,0.01568627450980392)" d="M131 118h1" />
<path stroke="rgba(222,75,80,0.4)" d="M137 118h1" />
<path stroke="rgba(226,72,82,0.3058823529411765)" d="M156 118h1" />
<path stroke="rgba(224,73,83,0.19215686274509805)" d="M162 118h1" />
<path stroke="rgba(227,72,84,0.25098039215686274)" d="M168 118h1" />
<path stroke="rgba(223,73,81,0.4666666666666667)" d="M187 118h1" />
<path stroke="rgba(219,73,80,0.13725490196078433)" d="M12 119h1M12 120h1M12 121h1M12 122h1M12 123h1M12 124h1" />
<path stroke="rgba(224,74,83,0.4196078431372549)" d="M13 119h5M138 119h6M13 120h5M138 120h6M13 121h5M138 121h6M13 122h5M138 122h6M13 123h5M138 123h6M13 124h5M138 124h6" />
<path stroke="rgba(224,74,83,0.611764705882353)" d="M18 119h1M18 120h1M18 121h1M18 122h1M18 123h1M18 124h1" />
<path stroke="rgba(224,75,83,0.7843137254901961)" d="M31 119h1M31 120h1M31 121h1M31 122h1M31 123h1M31 124h1" />
<path stroke="rgba(225,75,83,0.6)" d="M32 119h5M157 119h5M32 120h5M157 120h5M32 121h5M157 121h5M32 122h5M157 122h5M32 123h5M157 123h5M32 124h5M157 124h5" />
<path stroke="rgba(225,75,84,0.5725490196078431)" d="M37 119h1M37 120h1M37 121h1M37 122h1M37 123h1M37 124h1" />
<path stroke="rgba(226,75,84,0.9176470588235294)" d="M44 119h6M169 119h6M44 120h6M169 120h6M44 121h6M169 121h6M44 122h6M169 122h6M44 123h6M169 123h6M44 124h6M169 124h6" />
<path stroke="rgba(226,76,84,0.7137254901960784)" d="M56 119h1M56 120h1M56 121h1M56 122h1M56 123h1M56 124h1" />
<path stroke="rgba(227,75,84,0.5725490196078431)" d="M57 119h5M182 119h5M57 120h5M182 120h5M57 121h5M182 121h5M57 122h5M182 122h5M57 123h5M182 123h5M57 124h5M182 124h5" />
<path stroke="rgba(223,71,79,0.3803921568627451)" d="M62 119h1M62 120h1M62 121h1M62 122h1M62 123h1M62 124h1" />
<path stroke="rgba(226,75,83,0.4117647058823529)" d="M75 119h6M75 120h6M75 121h6M75 122h6M75 123h6M75 124h6" />
<path stroke="rgba(224,75,81,0.1607843137254902)" d="M94 119h6M94 120h6M94 121h6M94 122h6M94 123h6M94 124h6" />
<path stroke="rgba(255,85,85,0.011764705882352941)" d="M100 119h6M100 120h6M100 121h6M100 122h6M100 123h6M100 124h6M75 132h6M75 133h6M75 134h6M75 135h6M75 136h6M62 156h1" />
<path stroke="rgba(236,79,83,0.6235294117647059)" d="M106 119h1M106 120h1M106 121h1M106 122h1M106 123h1M106 124h1" />
<path stroke="rgba(226,75,84,0.9529411764705882)" d="M112 119h1M112 120h1M112 121h1M112 122h1M112 123h1M112 124h1" />
<path stroke="rgba(226,76,84,0.8980392156862745)" d="M118 119h1M118 120h1M118 121h1M118 122h1M118 123h1M118 124h1" />
<path stroke="rgba(227,76,83,0.7019607843137254)" d="M119 119h6M119 120h6M119 121h6M119 122h6M119 123h6M119 124h6" />
<path stroke="rgba(221,72,82,0.20784313725490197)" d="M137 119h1M137 120h1M137 121h1M137 122h1M137 123h1M137 124h1" />
<path stroke="rgba(225,75,83,0.7215686274509804)" d="M156 119h1M156 120h1M156 121h1M156 122h1M156 123h1M156 124h1" />
<path stroke="rgba(226,76,83,0.5803921568627451)" d="M162 119h1M162 120h1M162 121h1M162 122h1M162 123h1M162 124h1" />
<path stroke="rgba(226,75,84,0.7843137254901961)" d="M181 119h1M181 120h1M181 121h1M181 122h1M181 123h1M181 124h1" />
<path stroke="rgba(224,70,80,0.28627450980392155)" d="M187 119h1M187 120h1M187 121h1M187 122h1M187 123h1M187 124h1" />
<path stroke="rgba(222,72,85,0.15294117647058825)" d="M18 125h1M18 126h1M18 127h1M18 128h1M18 129h1M18 130h1" />
<path stroke="rgba(227,75,84,0.4666666666666667)" d="M19 125h6M144 125h6M19 126h6M144 126h6M19 127h6M144 127h6M19 128h6M144 128h6M19 129h6M144 129h6M19 130h6M144 130h6" />
<path stroke="rgba(226,76,83,0.984313725490196)" d="M31 125h1M31 126h1M31 127h1M31 128h1M31 129h1M31 130h1" />
<path stroke="rgba(213,60,60,0.21568627450980393)" d="M56 125h1M56 126h1M56 127h1M56 128h1M56 129h1M56 130h1" />
<path stroke="rgba(170,85,85,0.011764705882352941)" d="M62 125h1M62 126h1M62 127h1M62 128h1M62 129h1M62 130h1" />
<path stroke="rgba(222,71,80,0.21176470588235294)" d="M75 125h6M75 126h6M75 127h6M75 128h6M75 129h6M75 130h6" />
<path stroke="rgba(224,73,83,0.6039215686274509)" d="M81 125h1M81 126h1M81 127h1M81 128h1M81 129h1M81 130h1" />
<path stroke="rgba(226,76,83,0.9411764705882353)" d="M87 125h1M87 126h1M87 127h1M87 128h1M87 129h1M87 130h1" />
<path stroke="rgba(227,76,83,0.8862745098039215)" d="M88 125h6M88 126h6M88 127h6M88 128h6M88 129h6M88 130h6" />
<path stroke="rgba(228,75,82,0.4392156862745098)" d="M106 125h1M106 126h1M106 127h1M106 128h1M106 129h1M106 130h1" />
<path stroke="rgba(214,64,67,0.3137254901960784)" d="M181 125h1M181 126h1M181 127h1M181 128h1M181 129h1M181 130h1" />
<path stroke="rgba(228,81,81,0.07450980392156863)" d="M18 131h1" />
<path stroke="rgba(225,73,82,0.23137254901960785)" d="M19 131h6M144 131h6" />
<path stroke="rgba(225,73,82,0.5333333333333333)" d="M25 131h6M150 131h6" />
<path stroke="rgba(224,74,82,0.7176470588235294)" d="M31 131h1" />
<path stroke="rgba(226,75,83,0.9529411764705882)" d="M37 131h1" />
<path stroke="rgba(227,74,81,0.6509803921568628)" d="M44 131h6M169 131h6" />
<path stroke="rgba(226,72,78,0.3058823529411765)" d="M50 131h6M175 131h6" />
<path stroke="rgba(217,66,66,0.10588235294117647)" d="M56 131h1" />
<path stroke="rgba(237,82,82,0.10980392156862745)" d="M75 131h6" />
<path stroke="rgba(232,76,82,0.3411764705882353)" d="M81 131h1" />
<path stroke="rgba(227,75,83,0.5764705882352941)" d="M82 131h5M113 131h5" />
<path stroke="rgba(225,73,82,0.5372549019607843)" d="M87 131h1" />
<path stroke="rgba(226,70,82,0.24313725490196078)" d="M106 131h1" />
<path stroke="rgba(228,71,81,0.3686274509803922)" d="M107 131h5" />
<path stroke="rgba(227,71,83,0.43529411764705883)" d="M112 131h1" />
<path stroke="rgba(225,72,84,0.4745098039215686)" d="M118 131h1" />
<path stroke="rgba(223,72,83,0.2784313725490196)" d="M119 131h6" />
<path stroke="rgba(226,74,82,0.7803921568627451)" d="M156 131h1" />
<path stroke="rgba(226,75,83,0.9372549019607843)" d="M162 131h1" />
<path stroke="rgba(217,64,70,0.1568627450980392)" d="M181 131h1" />
<path stroke="rgba(224,73,81,0.4549019607843137)" d="M31 132h1M31 133h1M31 134h1M31 135h1M31 136h1" />
<path stroke="rgba(226,75,83,0.8156862745098039)" d="M32 132h5M157 132h5M32 133h5M157 133h5M32 134h5M157 134h5M32 135h5M157 135h5M32 136h5M157 136h5" />
<path stroke="rgba(243,73,85,0.08235294117647059)" d="M81 132h1M81 133h1M81 134h1M81 135h1M81 136h1" />
<path stroke="rgba(229,72,85,0.15294117647058825)" d="M82 132h5M113 132h5M82 133h5M113 133h5M82 134h5M113 134h5M82 135h5M113 135h5M82 136h5M113 136h5" />
<path stroke="rgba(225,67,82,0.13333333333333333)" d="M87 132h1M87 133h1M87 134h1M87 135h1M87 136h1" />
<path stroke="rgba(220,70,79,0.11372549019607843)" d="M88 132h6M88 133h6M88 134h6M88 135h6M88 136h6" />
<path stroke="rgba(222,74,82,0.12156862745098039)" d="M118 132h1M118 133h1M118 134h1M118 135h1M118 136h1" />
<path stroke="rgba(221,68,85,0.058823529411764705)" d="M119 132h6M119 133h6M119 134h6M119 135h6M119 136h6M118 137h1" />
<path stroke="rgba(226,73,82,0.5764705882352941)" d="M156 132h1M156 133h1M156 134h1M156 135h1M156 136h1" />
<path stroke="rgba(225,72,80,0.3607843137254902)" d="M31 137h1" />
<path stroke="rgba(225,76,82,0.6745098039215687)" d="M32 137h5M157 137h5" />
<path stroke="rgba(226,75,83,0.8352941176470589)" d="M37 137h1" />
<path stroke="rgba(228,74,82,0.6235294117647059)" d="M44 137h6M169 137h6" />
<path stroke="rgba(224,73,80,0.4235294117647059)" d="M50 137h6M175 137h6" />
<path stroke="rgba(223,72,79,0.44313725490196076)" d="M56 137h1" />
<path stroke="rgba(224,71,80,0.45098039215686275)" d="M57 137h5M182 137h5" />
<path stroke="rgba(221,71,77,0.3254901960784314)" d="M62 137h1" />
<path stroke="rgba(215,67,81,0.07450980392156863)" d="M63 137h5M188 137h6" />
<path stroke="rgba(230,77,77,0.0392156862745098)" d="M81 137h1" />
<path stroke="rgba(225,75,75,0.06666666666666667)" d="M87 137h1" />
<path stroke="rgba(225,73,80,0.4627450980392157)" d="M156 137h1" />
<path stroke="rgba(226,76,82,0.7803921568627451)" d="M162 137h1" />
<path stroke="rgba(223,71,78,0.43529411764705883)" d="M181 137h1" />
<path stroke="rgba(221,69,76,0.2627450980392157)" d="M187 137h1" />
<path stroke="rgba(227,75,82,0.5333333333333333)" d="M32 138h5M157 138h5M32 139h5M157 139h5M32 140h5M157 140h5M32 141h5M157 141h5M32 142h5M157 142h5M32 143h5M157 143h5" />
<path stroke="rgba(226,75,82,0.7647058823529411)" d="M37 138h1M37 139h1M37 140h1M37 141h1M37 142h1M37 143h1M168 144h1M168 145h1M168 146h1M168 147h1M168 148h1M168 149h1" />
<path stroke="rgba(225,74,83,0.8862745098039215)" d="M56 138h1M56 139h1M56 140h1M56 141h1M56 142h1M56 143h1" />
<path stroke="rgba(224,73,81,0.6549019607843137)" d="M62 138h1M62 139h1M62 140h1M62 141h1M62 142h1M62 143h1" />
<path stroke="rgba(226,69,78,0.10196078431372549)" d="M68 138h1M68 139h1M68 140h1M68 141h1M68 142h1M68 143h1" />
<path stroke="rgba(227,74,82,0.35294117647058826)" d="M156 138h1M156 139h1M156 140h1M156 141h1M156 142h1M156 143h1" />
<path stroke="rgba(225,75,83,0.8745098039215686)" d="M181 138h1M181 139h1M181 140h1M181 141h1M181 142h1M181 143h1" />
<path stroke="rgba(225,74,79,0.5294117647058824)" d="M187 138h1M187 139h1M187 140h1M187 141h1M187 142h1M187 143h1" />
<path stroke="rgba(221,73,78,0.3568627450980392)" d="M37 144h1M37 145h1M37 146h1M37 147h1M37 148h1M37 149h1" />
<path stroke="rgba(232,70,70,0.08627450980392157)" d="M68 144h1M68 145h1M68 146h1M68 147h1M68 148h1M68 149h1" />
<path stroke="rgba(220,75,75,0.2549019607843137)" d="M162 144h1M162 145h1M162 146h1M162 147h1M162 148h1M162 149h1" />
<path stroke="rgba(225,74,83,0.5647058823529412)" d="M187 144h1M187 145h1M187 146h1M187 147h1M187 148h1M187 149h1" />
<path stroke="rgba(235,78,78,0.050980392156862744)" d="M56 150h6M182 150h5M56 151h6M182 151h5M56 152h6M182 152h5M56 153h6M182 153h5M56 154h6M182 154h5M56 155h6M182 155h5" />
<path stroke="rgba(255,57,57,0.03529411764705882)" d="M62 150h1M62 151h1M62 152h1M62 153h1M62 154h1M62 155h1" />
<path stroke="rgba(237,73,73,0.054901960784313725)" d="M181 150h1M181 151h1M181 152h1M181 153h1M181 154h1M181 155h1" />
<path stroke="rgba(255,36,36,0.027450980392156862)" d="M187 150h1M187 151h1M187 152h1M187 153h1M187 154h1M187 155h1" />
<path stroke="rgba(255,51,51,0.0196078431372549)" d="M50 156h6M175 156h6" />
</svg>